# xmcd
#
# Track frame offsets:
#	182
#	17010
#	29792
#	46105
#	64480
#	79415
#	100807
#	113330
#	129387
#	140747
#	161432
#	183090
#	199282
#	218380
#	249725
#
# Disc length: 3659 seconds
#
# Revision: 0
# Processed by: cddbd v1.5.1PL2 Copyright (c) Steve Scherf et al.
# Submitted via: dBpowerAMP V4.0
#
DISCID=ce0e490f
DTITLE=Woody Allen - Wild Man Blues
DYEAR=1900
DGENRE=
TTITLE0=Lonesome Blues
TTITLE1=Dippermouth Blues
TTITLE2=After You've Gone
TTITLE3=Martha
TTITLE4=Lead Me Savior
TTITLE5=Swing A Lullaby
TTITLE6=Last Night On The Back Porch
TTITLE7=Shake That Thing
TTITLE8=Yaaka Hula Hickey Dula
TTITLE9=In The Evening
TTITLE10=Come On And Stomp, Stomp, Stomp
TTITLE11=Wild Man Blues
TTITLE12=Tie Me To Your Apron Strings Again
TTITLE13=Pappy's B Flat Blues
TTITLE14=Hear Me Talkin' To Ya
EXTD=
EXTT0=
EXTT1=
EXTT2=
EXTT3=
EXTT4=
EXTT5=
EXTT6=
EXTT7=
EXTT8=
EXTT9=
EXTT10=
EXTT11=
EXTT12=
EXTT13=
EXTT14=
PLAYORDER=
